<?xml version="1.0" encoding="UTF-8" standalone="no"?>
<!DOCTYPE svg PUBLIC "-//W3C//DTD SVG 1.1//EN" "http://www.w3.org/Graphics/SVG/1.1/DTD/svg11.dtd">
<svg width="100%" height="100%" viewBox="0 0 463 138" version="1.1" xmlns="http://www.w3.org/2000/svg" xmlns:xlink="http://www.w3.org/1999/xlink" xml:space="preserve" xmlns:serif="http://www.serif.com/" style="fill-rule:evenodd;clip-rule:evenodd;stroke-linejoin:round;stroke-miterlimit:2;">
    <g transform="matrix(1,0,0,1,-5165.39,-1574.6)">
        <g transform="matrix(0.314851,0,0,0.314851,5055.81,1498.54)">
            <g transform="matrix(2.91154,0,0,2.50123,-22858.6,-3627.67)">
                <path d="M7987.43,1645C7987.43,1613.52 8010.59,1586.92 8036.25,1587.8C8043.46,1588.05 8051.74,1591.52 8057.48,1597.41C8062.17,1602.23 8065.03,1608.93 8062.67,1616.98C8061.16,1622.11 8063.52,1627.68 8067.92,1629.44C8072.32,1631.19 8077.11,1628.45 8078.62,1623.33C8083.49,1606.7 8078.31,1592.63 8068.62,1582.7C8059.99,1573.84 8047.58,1568.57 8036.75,1568.2C8002.13,1567.01 7970.57,1602.53 7970.57,1645C7970.57,1650.41 7974.35,1654.81 7979,1654.81C7983.65,1654.81 7987.43,1650.41 7987.43,1645Z" style="fill:white;"/>
            </g>
            <g transform="matrix(2.91154,0,0,2.50123,-22858.6,-3628.06)">
                <path d="M8003.81,1602.49C8004.39,1601.87 8002.85,1579.01 8000.43,1580.92C7982.82,1594.78 7970.57,1618.54 7970.57,1645C7970.57,1687.39 8000.12,1721.81 8036.5,1721.81C8072.88,1721.81 8102.43,1687.39 8102.43,1645C8102.43,1637.4 8098.61,1629.82 8094,1635.19C8092.66,1636.76 8091.73,1639.44 8089.86,1637.91C8087.48,1635.97 8085.57,1641.34 8085.57,1645C8085.57,1676.56 8063.59,1702.19 8036.5,1702.19C8009.41,1702.19 7987.43,1676.56 7987.43,1645C7987.43,1628.35 7993.91,1613.06 8003.81,1602.49Z" style="fill:white;"/>
            </g>
            <g transform="matrix(2.91154,0,0,2.50123,-22858.6,-3627.67)">
                <path d="M7987.43,1645C7987.43,1613.52 8010.59,1586.92 8036.25,1587.8C8043.46,1588.05 8051.74,1591.52 8057.48,1597.41C8062.17,1602.23 8065.03,1608.93 8062.67,1616.98C8061.16,1622.11 8063.52,1627.68 8067.92,1629.44C8072.32,1631.19 8077.11,1628.45 8078.62,1623.33C8083.49,1606.7 8078.31,1592.63 8068.62,1582.7C8059.99,1573.84 8047.58,1568.57 8036.75,1568.2C8002.13,1567.01 7970.57,1602.53 7970.57,1645C7970.57,1650.41 7974.35,1654.81 7979,1654.81C7983.65,1654.81 7987.43,1650.41 7987.43,1645Z" style="fill:url(#_Radial1);"/>
            </g>
            <g transform="matrix(2.91154,0,0,2.50123,-22857.2,-3630.11)">
                <path d="M8062.67,1616.98C8060.87,1623.11 8055.14,1625.85 8049.11,1626.3C8039.09,1627.05 8027.39,1621.05 8023.61,1606.99C8020.69,1596.15 8022.31,1581.38 8030.62,1562.13C8032.1,1558.72 8031.69,1556.65 8028.62,1556.95C8025.99,1557.21 8027.46,1553.96 8026.09,1550.41C8024.21,1545.56 8017.66,1548.49 8015.57,1553.32C8001.62,1585.62 8003.84,1608.84 8011.77,1623.66C8020.35,1639.72 8036.15,1646.93 8050.19,1645.88C8063.37,1644.89 8074.69,1636.72 8078.62,1623.33C8080.12,1618.2 8077.77,1612.62 8073.37,1610.87C8068.97,1609.12 8064.17,1611.86 8062.67,1616.98Z" style="fill:white;"/>
            </g>
        </g>
        <g transform="matrix(2.47517,0,0,2.47517,4808.69,-769.755)">
            <g transform="matrix(0.127204,0,0,0.127204,99.8395,916.418)">
                <g transform="matrix(2.91154,0,0,2.50123,-22858.6,-3627.67)">
                    <path d="M7987.43,1645C7987.43,1613.52 8010.59,1586.92 8036.25,1587.8C8043.46,1588.05 8051.74,1591.52 8057.48,1597.41C8062.17,1602.23 8065.03,1608.93 8062.67,1616.98C8061.16,1622.11 8063.52,1627.68 8067.92,1629.44C8072.32,1631.19 8077.11,1628.45 8078.62,1623.33C8083.49,1606.7 8078.31,1592.63 8068.62,1582.7C8059.99,1573.84 8047.58,1568.57 8036.75,1568.2C8002.13,1567.01 7970.57,1602.53 7970.57,1645C7970.57,1650.41 7974.35,1654.81 7979,1654.81C7983.65,1654.81 7987.43,1650.41 7987.43,1645Z" style="fill:white;"/>
                </g>
                <g transform="matrix(2.91154,0,0,2.50123,-22858.6,-3628.06)">
                    <path d="M8003.81,1602.49C8004.39,1601.87 8002.85,1579.01 8000.43,1580.92C7982.82,1594.78 7970.57,1618.54 7970.57,1645C7970.57,1687.39 8000.12,1721.81 8036.5,1721.81C8072.88,1721.81 8102.43,1687.39 8102.43,1645C8102.43,1637.4 8098.61,1629.82 8094,1635.19C8092.66,1636.76 8091.73,1639.44 8089.86,1637.91C8087.48,1635.97 8085.57,1641.34 8085.57,1645C8085.57,1676.56 8063.59,1702.19 8036.5,1702.19C8009.41,1702.19 7987.43,1676.56 7987.43,1645C7987.43,1628.35 7993.91,1613.06 8003.81,1602.49Z" style="fill:white;"/>
                </g>
                <g transform="matrix(2.91154,0,0,2.50123,-22858.6,-3627.67)">
                    <path d="M7987.43,1645C7987.43,1613.52 8010.59,1586.92 8036.25,1587.8C8043.46,1588.05 8051.74,1591.52 8057.48,1597.41C8062.17,1602.23 8065.03,1608.93 8062.67,1616.98C8061.16,1622.11 8063.52,1627.68 8067.92,1629.44C8072.32,1631.19 8077.11,1628.45 8078.62,1623.33C8083.49,1606.7 8078.31,1592.63 8068.62,1582.7C8059.99,1573.84 8047.58,1568.57 8036.75,1568.2C8002.13,1567.01 7970.57,1602.53 7970.57,1645C7970.57,1650.41 7974.35,1654.81 7979,1654.81C7983.65,1654.81 7987.43,1650.41 7987.43,1645Z" style="fill:url(#_Radial2);"/>
                </g>
                <g transform="matrix(2.91154,0,0,2.50123,-22857.2,-3630.11)">
                    <path d="M8062.67,1616.98C8060.87,1623.11 8055.14,1625.85 8049.11,1626.3C8039.09,1627.05 8027.39,1621.05 8023.61,1606.99C8020.69,1596.15 8022.31,1581.38 8030.62,1562.13C8032.1,1558.72 8031.69,1556.65 8028.62,1556.95C8025.99,1557.21 8027.46,1553.96 8026.09,1550.41C8024.21,1545.56 8017.66,1548.49 8015.57,1553.32C8001.62,1585.62 8003.84,1608.84 8011.77,1623.66C8020.35,1639.72 8036.15,1646.93 8050.19,1645.88C8063.37,1644.89 8074.69,1636.72 8078.62,1623.33C8080.12,1618.2 8077.77,1612.62 8073.37,1610.87C8068.97,1609.12 8064.17,1611.86 8062.67,1616.98Z" style="fill:white;"/>
                </g>
            </g>
            <g transform="matrix(0.249128,0,0,0.249128,-1516.25,224.711)">
                <path d="M6961,3094.97C6950.03,3094.97 6940.14,3092.46 6931.35,3087.42C6922.55,3082.38 6915.56,3075.54 6910.38,3066.9C6905.19,3058.25 6902.6,3048.59 6902.6,3037.92C6902.6,3027.25 6905.15,3017.66 6910.26,3009.17C6915.37,3000.67 6922.36,2993.91 6931.24,2988.87C6940.11,2983.84 6949.95,2981.32 6960.78,2981.32C6971.9,2981.32 6981.86,2983.84 6990.66,2988.87C6999.45,2993.91 7006.4,3000.67 7011.52,3009.17C7016.63,3017.66 7019.18,3027.25 7019.18,3037.92C7019.18,3048.59 7016.63,3058.25 7011.52,3066.9C7006.4,3075.54 6999.45,3082.38 6990.66,3087.42C6981.86,3092.46 6971.98,3094.97 6961,3094.97ZM6960.78,3067.46C6966.34,3067.46 6971.26,3066.22 6975.55,3063.74C6979.83,3061.26 6983.14,3057.8 6985.47,3053.37C6987.8,3048.93 6988.97,3043.86 6988.97,3038.14C6988.97,3032.43 6987.76,3027.4 6985.36,3023.04C6982.95,3018.68 6979.65,3015.26 6975.44,3012.78C6971.23,3010.3 6966.34,3009.05 6960.78,3009.05C6955.36,3009.05 6950.55,3010.3 6946.34,3012.78C6942.14,3015.26 6938.83,3018.68 6936.42,3023.04C6934.02,3027.4 6932.81,3032.43 6932.81,3038.14C6932.81,3043.86 6934.02,3048.93 6936.42,3053.37C6938.83,3057.8 6942.14,3061.26 6946.34,3063.74C6950.55,3066.22 6955.36,3067.46 6960.78,3067.46Z" style="fill:white;fill-rule:nonzero;"/>
                <path d="M7109.84,3094.97C7098.71,3094.97 7088.72,3092.49 7079.85,3087.53C7070.98,3082.57 7063.99,3075.81 7058.87,3067.24C7053.76,3058.67 7051.21,3049.05 7051.21,3038.37C7051.21,3027.55 7053.76,3017.85 7058.87,3009.28C7063.99,3000.71 7071.01,2993.91 7079.96,2988.87C7088.9,2983.84 7098.86,2981.32 7109.84,2981.32C7118.41,2981.32 7126.3,2982.89 7133.52,2986.05C7140.73,2989.21 7146.97,2993.72 7152.24,2999.58L7133.29,3018.75C7130.44,3015.59 7127.02,3013.19 7123.03,3011.53C7119.05,3009.88 7114.65,3009.05 7109.84,3009.05C7104.43,3009.05 7099.58,3010.3 7095.29,3012.78C7091.01,3015.26 7087.63,3018.64 7085.15,3022.92C7082.66,3027.21 7081.43,3032.28 7081.43,3038.14C7081.43,3043.86 7082.66,3048.93 7085.15,3053.37C7087.63,3057.8 7091.01,3061.26 7095.29,3063.74C7099.58,3066.22 7104.43,3067.46 7109.84,3067.46C7114.8,3067.46 7119.27,3066.6 7123.26,3064.87C7127.24,3063.14 7130.66,3060.62 7133.52,3057.31L7152.69,3076.48C7147.12,3082.5 7140.73,3087.08 7133.52,3090.24C7126.3,3093.39 7118.41,3094.97 7109.84,3094.97Z" style="fill:white;fill-rule:nonzero;"/>
                <path d="M7238.61,3094.97C7227.48,3094.97 7217.48,3092.49 7208.61,3087.53C7199.74,3082.57 7192.75,3075.81 7187.64,3067.24C7182.53,3058.67 7179.97,3049.05 7179.97,3038.37C7179.97,3027.55 7182.53,3017.85 7187.64,3009.28C7192.75,3000.71 7199.78,2993.91 7208.73,2988.87C7217.67,2983.84 7227.63,2981.32 7238.61,2981.32C7247.18,2981.32 7255.07,2982.89 7262.28,2986.05C7269.5,2989.21 7275.74,2993.72 7281,2999.58L7262.06,3018.75C7259.2,3015.59 7255.78,3013.19 7251.8,3011.53C7247.81,3009.88 7243.42,3009.05 7238.61,3009.05C7233.19,3009.05 7228.35,3010.3 7224.06,3012.78C7219.78,3015.26 7216.39,3018.64 7213.91,3022.92C7211.43,3027.21 7210.19,3032.28 7210.19,3038.14C7210.19,3043.86 7211.43,3048.93 7213.91,3053.37C7216.39,3057.8 7219.78,3061.26 7224.06,3063.74C7228.35,3066.22 7233.19,3067.46 7238.61,3067.46C7243.57,3067.46 7248.04,3066.6 7252.02,3064.87C7256.01,3063.14 7259.43,3060.62 7262.28,3057.31L7281.45,3076.48C7275.89,3082.5 7269.5,3087.08 7262.28,3090.24C7255.07,3093.39 7247.18,3094.97 7238.61,3094.97Z" style="fill:white;fill-rule:nonzero;"/>
                <path d="M7364.89,3094.97C7355.27,3094.97 7346.74,3092.94 7339.3,3088.89C7331.85,3084.83 7326.03,3079.19 7321.82,3071.97C7317.61,3064.76 7315.5,3056.41 7315.5,3046.94L7315.5,2983.8L7345.27,2983.8L7345.27,3046.26C7345.27,3050.77 7346.02,3054.64 7347.53,3057.88C7349.03,3061.11 7351.28,3063.55 7354.29,3065.21C7357.3,3066.86 7360.83,3067.69 7364.89,3067.69C7371.06,3067.69 7375.87,3065.81 7379.32,3062.05C7382.78,3058.29 7384.51,3053.03 7384.51,3046.26L7384.51,2983.8L7414.05,2983.8L7414.05,3046.94C7414.05,3056.56 7411.99,3064.98 7407.85,3072.2C7403.72,3079.41 7397.93,3085.01 7390.49,3089C7383.05,3092.98 7374.51,3094.97 7364.89,3094.97Z" style="fill:white;fill-rule:nonzero;"/>
            </g>
        </g>
    </g>
    <defs>
        <radialGradient id="_Radial1" cx="0" cy="0" r="1" gradientUnits="userSpaceOnUse" gradientTransform="matrix(28.2543,-17.3836,14.9338,32.8892,8011.8,1585.55)"><stop offset="0" style="stop-color:rgb(232,221,218);stop-opacity:1"/><stop offset="1" style="stop-color:white;stop-opacity:1"/></radialGradient>
        <radialGradient id="_Radial2" cx="0" cy="0" r="1" gradientUnits="userSpaceOnUse" gradientTransform="matrix(28.2543,-17.3836,14.9338,32.8892,8011.8,1585.55)"><stop offset="0" style="stop-color:rgb(232,221,218);stop-opacity:1"/><stop offset="1" style="stop-color:white;stop-opacity:1"/></radialGradient>
    </defs>
</svg>
